HIERARCHY
ROOT Hips
{
	OFFSET 0.000000 89.005402 0.000000
	CHANNELS 6 Xposition Yposition Zposition Xrotation Yrotation Zrotation
	JOINT Spine
	{
		OFFSET 0.116900 10.681000 0.373400
		CHANNELS 3 Xrotation Yrotation Zrotation
		JOINT Spine1
		{
			OFFSET 0.000000 13.840401 0.053500
			CHANNELS 3 Xrotation Yrotation Zrotation
			JOINT Spine2
			{
				OFFSET 0.000000 14.712700 -0.366200
				CHANNELS 3 Xrotation Yrotation Zrotation
				JOINT Neck
				{
					OFFSET 0.000000 35.415497 -3.314200
					CHANNELS 3 Xrotation Yrotation Zrotation
					JOINT Head
					{
						OFFSET 0.000000 16.899200 1.218300
						CHANNELS 3 Xrotation Yrotation Zrotation
						JOINT HeadTop_End
						{
							OFFSET 0.000000 22.206207 2.192500
							CHANNELS 3 Xrotation Yrotation Zrotation
							End Site
							{
								OFFSET 0.000000 22.314178 0.000000
							}
						}
					}
				}
				JOINT LeftShoulder
				{
					OFFSET 12.896400 26.716293 -4.548400
					CHANNELS 3 Xrotation Yrotation Zrotation
					JOINT LeftArm
					{
						OFFSET 19.027000 -4.857010 -1.718400
						CHANNELS 3 Xrotation Yrotation Zrotation
						JOINT LeftForeArm
						{
							OFFSET 24.179897 0.000000 0.000000
							CHANNELS 3 Xrotation Yrotation Zrotation
							JOINT LeftHand
							{
								OFFSET 27.156403 0.000000 0.000000
								CHANNELS 3 Xrotation Yrotation Zrotation
								JOINT LeftHandIndex1
								{
									OFFSET 16.441200 0.000000 0.000000
									CHANNELS 3 Xrotation Yrotation Zrotation
									JOINT LeftHandIndex2
									{
										OFFSET 4.821899 0.000000 0.000000
										CHANNELS 3 Xrotation Yrotation Zrotation
										JOINT LeftHandIndex3
										{
											OFFSET 6.386497 0.000000 0.000000
											CHANNELS 3 Xrotation Yrotation Zrotation
											JOINT LeftHandIndex4
											{
												OFFSET 5.188988 0.000000 0.000000
												CHANNELS 3 Xrotation Yrotation Zrotation
												End Site
												{
													OFFSET -0.178703 5.185913 0.000177
												}
											}
										}
									}
								}
								JOINT LeftHandThumb1
								{
									OFFSET 6.534897 -5.032593 5.900300
									CHANNELS 3 Xrotation Yrotation Zrotation
									JOINT LeftHandThumb2
									{
										OFFSET 3.818176 -2.204422 2.204423
										CHANNELS 3 Xrotation Yrotation Zrotation
										JOINT LeftHandThumb3
										{
											OFFSET 3.252098 -1.877594 1.877601
											CHANNELS 3 Xrotation Yrotation Zrotation
											JOINT LeftHandThumb4
											{
												OFFSET 5.251778 -3.032120 3.032117
												CHANNELS 3 Xrotation Yrotation Zrotation
												End Site
												{
													OFFSET 0.000023 6.780014 0.000000
												}
											}
										}
									}
								}
							}
						}
					}
				}
				JOINT RightShoulder
				{
					OFFSET -12.896300 26.716293 -4.548400
					CHANNELS 3 Xrotation Yrotation Zrotation
					JOINT RightArm
					{
						OFFSET -19.027000 -4.857010 -1.718400
						CHANNELS 3 Xrotation Yrotation Zrotation
						JOINT RightForeArm
						{
							OFFSET -24.179897 0.000000 0.000000
							CHANNELS 3 Xrotation Yrotation Zrotation
							JOINT RightHand
							{
								OFFSET -27.156403 0.000000 0.000000
								CHANNELS 3 Xrotation Yrotation Zrotation
								JOINT RightHandThumb1
								{
									OFFSET -6.591202 -4.852203 5.988100
									CHANNELS 3 Xrotation Yrotation Zrotation
									JOINT RightHandThumb2
									{
										OFFSET -3.818176 -2.204422 2.204423
										CHANNELS 3 Xrotation Yrotation Zrotation
										JOINT RightHandThumb3
										{
											OFFSET -3.252098 -1.877594 1.877601
											CHANNELS 3 Xrotation Yrotation Zrotation
											JOINT RightHandThumb4
											{
												OFFSET -5.251778 -3.032120 3.032117
												CHANNELS 3 Xrotation Yrotation Zrotation
												End Site
												{
													OFFSET -0.000023 6.780014 0.000000
												}
											}
										}
									}
								}
								JOINT RightHandIndex1
								{
									OFFSET -16.029404 0.000000 0.000000
									CHANNELS 3 Xrotation Yrotation Zrotation
									JOINT RightHandIndex2
									{
										OFFSET -5.213303 0.000000 0.000000
										CHANNELS 3 Xrotation Yrotation Zrotation
										JOINT RightHandIndex3
										{
											OFFSET -6.386528 0.000000 0.000000
											CHANNELS 3 Xrotation Yrotation Zrotation
											JOINT RightHandIndex4
											{
												OFFSET -5.189026 0.000000 0.000000
												CHANNELS 3 Xrotation Yrotation Zrotation
												End Site
												{
													OFFSET 0.236702 5.183624 0.001972
												}
											}
										}
									}
								}
							}
						}
					}
				}
			}
		}
	}
	JOINT LeftUpLeg
	{
		OFFSET 14.073000 -7.904099 -1.463000
		CHANNELS 3 Xrotation Yrotation Zrotation
		JOINT LeftLeg
		{
			OFFSET -0.109806 -34.073280 4.093200
			CHANNELS 3 Xrotation Yrotation Zrotation
			JOINT LeftFoot
			{
				OFFSET 0.109806 -29.899420 -6.319000
				CHANNELS 3 Xrotation Yrotation Zrotation
				JOINT LeftToeBase
				{
					OFFSET 1.551100 -14.988700 20.535801
					CHANNELS 3 Xrotation Yrotation Zrotation
					JOINT LeftToe_End
					{
						OFFSET 0.221200 0.570800 13.248301
						CHANNELS 3 Xrotation Yrotation Zrotation
						End Site
						{
							OFFSET 0.000000 13.262435 0.000000
						}
					}
				}
			}
		}
	}
	JOINT RightUpLeg
	{
		OFFSET -13.839300 -7.904099 -1.463000
		CHANNELS 3 Xrotation Yrotation Zrotation
		JOINT RightLeg
		{
			OFFSET 0.109694 -34.073219 4.093300
			CHANNELS 3 Xrotation Yrotation Zrotation
			JOINT RightFoot
			{
				OFFSET -0.109694 -29.899384 -6.319200
				CHANNELS 3 Xrotation Yrotation Zrotation
				JOINT RightToeBase
				{
					OFFSET -1.551100 -14.988700 20.535801
					CHANNELS 3 Xrotation Yrotation Zrotation
					JOINT RightToe_End
					{
						OFFSET -0.221200 0.570900 13.248299
						CHANNELS 3 Xrotation Yrotation Zrotation
						End Site
						{
							OFFSET 0.000000 13.262440 0.000000
						}
					}
				}
			}
		}
	}
}
MOTION
Frames: 8
Frame Time: 0.033333
0.303035 48.179298 7.519367 -24.436603 11.458739 2.807989 4.244074 -2.899211 0.810322 8.487249 -5.242224 1.096149 8.487248 -5.242227 1.096149 5.240892 -1.217251 6.178389 2.381093 2.377751 4.188863 -0.000000 -0.000000 0.000000 -0.001677 -16.273450 -14.880530 4.973894 -10.001814 -68.429944 70.376562 -38.953289 61.014490 -2.152398 -8.893799 27.557517 -8.188709 22.645441 29.397868 1.982458 0.126056 -19.091748 4.801208 -4.886443 22.976973 -0.000000 0.000002 -0.000002 -2.818558 26.334807 25.019949 4.556612 31.246821 12.826246 -3.498622 -6.883698 -1.202776 0.000001 -0.000001 -0.000000 -0.003572 13.705439 16.221489 11.505713 31.715321 59.583961 88.912910 1.037957 -73.611148 -4.583422 3.118808 -11.729256 -18.933993 -6.180656 -25.434667 24.566336 -16.887095 13.853364 -2.968805 3.888089 7.152399 -0.000000 -0.000001 -0.000000 -0.009558 2.420233 51.718688 2.569344 -1.310334 33.635103 4.637040 5.315067 -16.108130 0.000000 0.000001 0.000001 -67.260295 7.563866 -27.695399 78.306104 30.619301 4.716179 10.451094 -0.209216 11.043976 0.979134 0.000008 0.000027 -0.000000 -0.000001 0.000000 -89.128354 -15.130674 0.407112 69.737638 -35.285703 -3.112675 39.162515 -1.612668 -9.563023 -0.304582 0.000006 -0.000000 -0.000000 0.000001 -0.000002 
0.304020 48.177933 7.518730 -24.438396 11.464858 2.805992 4.242205 -2.900195 0.808968 8.483539 -5.244308 1.094009 8.483532 -5.244305 1.094008 5.371101 -1.222547 6.131753 2.698215 2.371349 4.136016 -0.000000 -0.000000 0.000001 -0.002717 -16.272372 -14.888346 4.966101 -9.996048 -68.426816 70.374519 -38.937744 61.004818 -2.158442 -8.895823 27.544027 -8.188699 22.645434 29.397882 1.982463 0.126056 -19.091755 4.801215 -4.886475 22.976961 -0.000004 -0.000002 -0.000005 -2.818551 26.334795 25.019953 4.556622 31.246838 12.826240 -3.498628 -6.883705 -1.202779 -0.000001 -0.000001 -0.000000 -0.002675 13.681821 16.229452 11.505559 31.743051 59.566701 88.907247 1.062807 -73.589770 -4.579814 3.122352 -11.733904 -18.933991 -6.180636 -25.434661 24.566338 -16.887083 13.853359 -2.968807 3.888099 7.152401 0.000000 0.000001 -0.000000 -0.009555 2.420258 51.718681 2.569336 -1.310339 33.635106 4.637056 5.315078 -16.108158 -0.000001 0.000000 -0.000001 -67.262474 7.559639 -27.700358 78.306869 30.618830 4.714830 10.454608 -0.207757 11.045396 0.979291 -0.000005 0.000022 0.000000 -0.000001 0.000000 -89.121722 -15.135431 0.398475 69.767521 -35.302058 -3.104892 39.170571 -1.607749 -9.550282 -0.303679 -0.000003 0.000002 -0.000000 0.000000 -0.000002 
0.302642 48.177231 7.513706 -24.441349 11.465136 2.803775 4.248030 -2.900048 0.808344 8.494880 -5.249446 1.089323 8.494882 -5.249448 1.089322 5.519854 -1.217986 6.074025 3.003644 2.384646 4.062050 0.000000 -0.000000 0.000000 -0.003622 -16.259405 -14.900430 4.964783 -9.986122 -68.408265 70.404374 -38.928919 61.041271 -2.161915 -8.890739 27.535013 -8.188727 22.645453 29.397882 1.982442 0.126065 -19.091752 4.801226 -4.886438 22.976973 0.000001 -0.000001 0.000001 -2.818573 26.334783 25.019948 4.556611 31.246838 12.826243 -3.498629 -6.883700 -1.202774 -0.000003 0.000001 -0.000000 -0.002020 13.667582 16.232453 11.487758 31.763832 59.569099 88.910007 1.060028 -73.585098 -4.575537 3.130127 -11.742641 -18.933991 -6.180652 -25.434663 24.566343 -16.887086 13.853365 -2.968803 3.888071 7.152400 0.000000 -0.000000 -0.000000 -0.009556 2.420244 51.718674 2.569344 -1.310326 33.635116 4.637044 5.315073 -16.108146 -0.000006 -0.000001 0.000000 -67.262829 7.556032 -27.695924 78.302621 30.614042 4.712919 10.461858 -0.205869 11.047933 0.979434 -0.000005 0.000031 -0.000000 -0.000001 0.000000 -89.109954 -15.142760 0.393091 69.782404 -35.368673 -3.106154 39.159001 -1.588505 -9.496570 -0.302889 0.000002 -0.000005 -0.000000 -0.000001 0.000002 
0.299693 48.177567 7.507069 -24.441677 11.461983 2.803120 4.260570 -2.898993 0.808745 8.519623 -5.255701 1.084292 8.519615 -5.255697 1.084292 5.673146 -1.208505 5.998697 3.324782 2.409315 3.948926 -0.000000 -0.000000 0.000000 -0.004419 -16.232209 -14.918631 4.963922 -9.974392 -68.382174 70.467997 -38.916748 61.121744 -2.161245 -8.884942 27.527698 -8.188715 22.645432 29.397868 1.982459 0.126059 -19.091746 4.801217 -4.886464 22.976965 0.000003 0.000001 -0.000001 -2.818557 26.334788 25.019937 4.556621 31.246848 12.826254 -3.498636 -6.883711 -1.202791 -0.000001 0.000002 0.000001 -0.000659 13.661647 16.222264 11.453491 31.775396 59.597355 88.916168 1.029772 -73.600793 -4.567015 3.139970 -11.758261 -18.934000 -6.180658 -25.434678 24.566350 -16.887083 13.853362 -2.968806 3.888092 7.152403 -0.000000 -0.000001 0.000000 -0.009558 2.420253 51.718674 2.569333 -1.310330 33.635092 4.637049 5.315076 -16.108153 0.000001 -0.000001 -0.000000 -67.264891 7.551704 -27.687806 78.295066 30.608062 4.709532 10.471389 -0.203822 11.049347 0.979110 0.000005 0.000023 -0.000000 0.000002 0.000000 -89.099551 -15.154802 0.389909 69.771735 -35.451260 -3.117230 39.133692 -1.560183 -9.418988 -0.323930 -0.000005 -0.000008 0.000000 0.000001 -0.000001 
0.296735 48.178894 7.502243 -24.438559 11.457467 2.804932 4.278697 -2.898374 0.809114 8.555517 -5.261693 1.079776 8.555518 -5.261693 1.079776 5.829528 -1.199213 5.900225 3.717438 2.440801 3.769023 0.000000 -0.000000 0.000000 -0.004988 -16.198176 -14.938995 4.958474 -9.953692 -68.360181 70.565990 -38.891872 61.242720 -2.156352 -8.882664 27.520041 -8.188707 22.645451 29.397875 1.982463 0.126061 -19.091743 4.801208 -4.886480 22.976951 0.000003 0.000001 0.000003 -2.818561 26.334824 25.019958 4.556610 31.246814 12.826234 -3.498639 -6.883709 -1.202786 -0.000001 0.000000 0.000002 0.001869 13.659805 16.197787 11.406985 31.780290 59.649517 88.921085 0.977673 -73.635983 -4.551739 3.150830 -11.783112 -18.933995 -6.180652 -25.434672 24.566341 -16.887086 13.853364 -2.968802 3.888069 7.152397 -0.000000 0.000002 -0.000000 -0.009555 2.420245 51.718684 2.569333 -1.310334 33.635120 4.637041 5.315060 -16.108146 -0.000001 -0.000000 0.000001 -67.269584 7.546335 -27.681985 78.288065 30.604848 4.705129 10.479605 -0.202011 11.047391 0.979193 0.000001 0.000024 -0.000000 -0.000001 0.000000 -89.094395 -15.173270 0.388435 69.733574 -35.507503 -3.134017 39.107706 -1.535102 -9.353158 -0.344074 0.000007 -0.000019 -0.000000 -0.000001 -0.000001 
0.294362 48.180756 7.499729 -24.434537 11.450892 2.807864 4.300025 -2.898940 0.809197 8.597965 -5.267452 1.076646 8.597962 -5.267453 1.076646 5.989777 -1.194747 5.780092 4.217192 2.474500 3.505303 -0.000000 0.000000 -0.000001 -0.004754 -16.167782 -14.952170 4.948841 -9.918518 -68.352620 70.686085 -38.855645 61.388531 -2.149388 -8.885624 27.514606 -8.188708 22.645426 29.397879 1.982466 0.126076 -19.091750 4.801216 -4.886450 22.976966 0.000002 -0.000001 0.000001 -2.818548 26.334802 25.019941 4.556597 31.246838 12.826247 -3.498630 -6.883706 -1.202778 -0.000001 0.000001 0.000002 0.004798 13.654124 16.172063 11.363895 31.788366 59.701447 88.925074 0.914637 -73.685023 -4.534368 3.158923 -11.812069 -18.934002 -6.180662 -25.434678 24.566362 -16.887110 13.853367 -2.968804 3.888083 7.152395 -0.000000 0.000001 -0.000000 -0.009561 2.420254 51.718674 2.569326 -1.310336 33.635120 4.637041 5.315071 -16.108147 -0.000001 -0.000000 -0.000000 -67.275150 7.539486 -27.679026 78.283530 30.606061 4.701153 10.485361 -0.200362 11.041023 0.979218 -0.000012 0.000031 -0.000000 -0.000002 0.000000 -89.092223 -15.194410 0.388233 69.680203 -35.533100 -3.151714 39.089610 -1.522488 -9.322533 -0.354511 0.000008 -0.000005 -0.000000 0.000000 -0.000002 
0.292199 48.182487 7.498001 -24.432637 11.440978 2.810279 4.323076 -2.900817 0.808960 8.643908 -5.273932 1.074670 8.643904 -5.273934 1.074671 6.150344 -1.194614 5.644279 4.786743 2.509041 3.160064 0.000001 0.000000 0.000000 -0.002483 -16.142290 -14.948653 4.939518 -9.875619 -68.362134 70.815784 -38.814162 61.545352 -2.143276 -8.891476 27.516298 -8.188712 22.645424 29.397882 1.982467 0.126057 -19.091757 4.801224 -4.886439 22.976968 0.000000 -0.000001 -0.000001 -2.818551 26.334798 25.019953 4.556606 31.246821 12.826246 -3.498632 -6.883692 -1.202782 0.000003 0.000002 0.000002 0.006593 13.640672 16.163091 11.342401 31.806005 59.721152 88.934111 0.850279 -73.746024 -4.525052 3.156181 -11.839922 -18.933996 -6.180659 -25.434667 24.566360 -16.887103 13.853372 -2.968809 3.888089 7.152401 0.000000 -0.000001 -0.000000 -0.009561 2.420251 51.718671 2.569335 -1.310337 33.635120 4.637043 5.315072 -16.108161 -0.000005 0.000000 0.000000 -67.280649 7.529941 -27.677091 78.281440 30.611467 4.698808 10.490415 -0.198535 11.029532 0.979304 0.000007 0.000036 0.000000 -0.000001 0.000000 -89.089108 -15.211016 0.386911 69.631791 -35.549984 -3.166390 39.083036 -1.523785 -9.328096 -0.358765 -0.000002 -0.000000 0.000001 -0.000000 -0.000001 
0.289763 48.183617 7.496262 -24.433754 11.427726 2.812669 4.347299 -2.903713 0.807752 8.692352 -5.281362 1.072291 8.692346 -5.281364 1.072290 6.295789 -1.196430 5.500642 5.328837 2.539141 2.755315 -0.000001 -0.000000 -0.000001 0.002696 -16.117399 -14.924677 4.931736 -9.836355 -68.386238 70.949075 -38.769072 61.705753 -2.140161 -8.896505 27.526246 -8.188708 22.645441 29.397875 1.982449 0.126053 -19.091745 4.801216 -4.886451 22.976973 0.000002 -0.000001 0.000002 -2.818559 26.334815 25.019958 4.556604 31.246807 12.826246 -3.498635 -6.883693 -1.202778 -0.000000 -0.000002 -0.000000 0.006599 13.623178 16.175380 11.344907 31.829293 59.700805 88.952170 0.789820 -73.817911 -4.528830 3.138440 -11.867399 -18.933996 -6.180662 -25.434670 24.566343 -16.887095 13.853366 -2.968802 3.888071 7.152402 -0.000000 -0.000001 -0.000000 -0.009562 2.420243 51.718688 2.569325 -1.310342 33.635103 4.637039 5.315065 -16.108147 0.000006 0.000000 -0.000001 -67.286393 7.517293 -27.676388 78.281256 30.621039 4.698127 10.496493 -0.196273 11.012591 0.979403 -0.000005 0.000032 -0.000000 -0.000001 0.000000 -89.084327 -15.217337 0.381786 69.603965 -35.567141 -3.174860 39.085549 -1.532408 -9.351112 -0.357844 0.000002 0.000003 -0.000000 -0.000000 0.000001 
